<?xml version="1.0" encoding="UTF-8" standalone="no"?>
<!-- Created with Inkscape (http://www.inkscape.org/) -->

<svg
   width="100"
   height="100"
   viewBox="0 0 26.458333 26.458333"
   version="1.1"
   id="svg5"
   inkscape:version="1.2.2 (b0a8486541, 2022-12-01)"
   sodipodi:docname="logo.svg"
   inkscape:export-filename="512.png"
   inkscape:export-xdpi="491.51999"
   inkscape:export-ydpi="491.51999"
   xmlns:inkscape="http://www.inkscape.org/namespaces/inkscape"
   xmlns:sodipodi="http://sodipodi.sourceforge.net/DTD/sodipodi-0.dtd"
   xmlns="http://www.w3.org/2000/svg"
   xmlns:svg="http://www.w3.org/2000/svg">
  <sodipodi:namedview
     id="namedview7"
     pagecolor="#ffffff"
     bordercolor="#000000"
     borderopacity="0.25"
     inkscape:showpageshadow="2"
     inkscape:pageopacity="0.0"
     inkscape:pagecheckerboard="0"
     inkscape:deskcolor="#d1d1d1"
     inkscape:document-units="px"
     showgrid="false"
     inkscape:zoom="2.2702612"
     inkscape:cx="-4.8452575"
     inkscape:cy="40.523972"
     inkscape:window-width="1920"
     inkscape:window-height="1011"
     inkscape:window-x="0"
     inkscape:window-y="0"
     inkscape:window-maximized="1"
     inkscape:current-layer="layer5" />
  <defs
     id="defs2" />
  <g
     inkscape:groupmode="layer"
     id="layer5"
     inkscape:label="Layer 3">
    <rect
       style="fill:#666666;fill-opacity:1;stroke:none;stroke-width:1.98438;stroke-dasharray:7.93753, 1.98438, 3.96875, 1.98438, 11.9063, 1.98438, 7.93753, 1.98438, 15.8751, 1.98438;stroke-dashoffset:0;stroke-opacity:1;paint-order:markers fill stroke"
       id="rect19883"
       width="26.458332"
       height="26.458332"
       x="0"
       y="0" />
  </g>
  <g
     inkscape:label="Layer 1"
     inkscape:groupmode="layer"
     id="layer1">
    <path
       id="path1200"
       style="color:#000000;fill:#cccccc;stroke-dasharray:7.93752, 1.98438, 3.96876, 1.98438, 11.9063, 1.98438, 7.93752, 1.98438, 15.875, 1.98438;-inkscape-stroke:none;paint-order:markers fill stroke;fill-opacity:1"
       d="M 0 0 L 0 1.984375 L 7.9374999 1.984375 L 7.9374999 0 L 0 0 z M 9.9218749 0 L 9.9218749 1.984375 L 13.890625 1.984375 L 13.890625 0 L 9.9218749 0 z M 15.875 0 L 15.875 1.984375 L 26.45885 1.984375 L 26.45885 0 L 15.875 0 z M 0 2.5135416 L 0 4.4979166 L 1.984375 4.4979166 L 1.984375 2.5135416 L 0 2.5135416 z M 3.9687499 2.5135416 L 3.9687499 4.4979166 L 15.875 4.4979166 L 15.875 2.5135416 L 3.9687499 2.5135416 z M 17.859375 2.5135416 L 17.859375 4.4979166 L 25.796875 4.4979166 L 25.796875 2.5135416 L 17.859375 2.5135416 z M 0 5.0276 L 0 7.011975 L 3.9687499 7.011975 L 3.9687499 5.0276 L 0 5.0276 z M 5.9531249 5.0276 L 5.9531249 7.011975 L 17.859375 7.011975 L 17.859375 5.0276 L 5.9531249 5.0276 z M 19.84375 5.0276 L 19.84375 7.011975 L 26.45885 7.011975 L 26.45885 5.0276 L 19.84375 5.0276 z M 0 7.5411417 L 0 9.5255166 L 11.90625 9.5255166 L 11.90625 7.5411417 L 0 7.5411417 z M 13.890625 7.5411417 L 13.890625 9.5255166 L 21.828125 9.5255166 L 21.828125 7.5411417 L 13.890625 7.5411417 z M 23.8125 7.5411417 L 23.8125 9.5255166 L 26.45885 9.5255166 L 26.45885 7.5411417 L 23.8125 7.5411417 z M 0 10.054683 L 0 12.039058 L 1.984375 12.039058 L 1.984375 10.054683 L 0 10.054683 z M 3.9687499 10.054683 L 3.9687499 12.039058 L 7.9374999 12.039058 L 7.9374999 10.054683 L 3.9687499 10.054683 z M 9.9218749 10.054683 L 9.9218749 12.039058 L 21.828125 12.039058 L 21.828125 10.054683 L 9.9218749 10.054683 z M 23.8125 10.054683 L 23.8125 12.039058 L 26.45885 12.039058 L 26.45885 10.054683 L 23.8125 10.054683 z M 1.984375 12.568225 L 1.984375 14.5526 L 9.9218749 14.5526 L 9.9218749 12.568225 L 1.984375 12.568225 z M 11.90625 12.568225 L 11.90625 14.5526 L 26.45885 14.5526 L 26.45885 12.568225 L 11.90625 12.568225 z M 0 15.082283 L 0 17.066658 L 3.9687499 17.066658 L 3.9687499 15.082283 L 0 15.082283 z M 5.9531249 15.082283 L 5.9531249 17.066658 L 9.9218749 17.066658 L 9.9218749 15.082283 L 5.9531249 15.082283 z M 11.90625 15.082283 L 11.90625 17.066658 L 23.8125 17.066658 L 23.8125 15.082283 L 11.90625 15.082283 z M 25.796875 15.082283 L 25.796875 17.066658 L 26.45885 17.066658 L 26.45885 15.082283 L 25.796875 15.082283 z M 1.984375 17.595825 L 1.984375 19.5802 L 13.890625 19.5802 L 13.890625 17.595825 L 1.984375 17.595825 z M 15.875 17.595825 L 15.875 19.5802 L 23.8125 19.5802 L 23.8125 17.595825 L 15.875 17.595825 z M 25.796875 17.595825 L 25.796875 19.5802 L 26.45885 19.5802 L 26.45885 17.595825 L 25.796875 17.595825 z M 1.984375 20.1073 L 1.984375 22.091675 L 5.9531249 22.091675 L 5.9531249 20.1073 L 1.984375 20.1073 z M 7.9374999 20.1073 L 7.9374999 22.091675 L 19.84375 22.091675 L 19.84375 20.1073 L 7.9374999 20.1073 z M 21.828125 20.1073 L 21.828125 22.091675 L 26.45885 22.091675 L 26.45885 20.1073 L 21.828125 20.1073 z M 0 22.620841 L 0 24.605216 L 3.9687499 24.605216 L 3.9687499 22.620841 L 0 22.620841 z M 5.9531249 22.620841 L 5.9531249 24.605216 L 17.859375 24.605216 L 17.859375 22.620841 L 5.9531249 22.620841 z M 19.84375 22.620841 L 19.84375 24.605216 L 26.45885 24.605216 L 26.45885 22.620841 L 19.84375 22.620841 z M 0 25.1349 L 0 27.119275 L 5.9531249 27.119275 L 5.9531249 25.1349 L 0 25.1349 z M 7.9374999 25.1349 L 7.9374999 27.119275 L 11.90625 27.119275 L 11.90625 25.1349 L 7.9374999 25.1349 z M 13.890625 25.1349 L 13.890625 27.119275 L 25.796875 27.119275 L 25.796875 25.1349 L 13.890625 25.1349 z " />
  </g>
  <g
     inkscape:groupmode="layer"
     id="layer4"
     inkscape:label="Layer 2"
     style="opacity:1">
    <path
       id="path1200-3"
       style="color:#000000;fill:#000000;stroke-dasharray:7.93752, 1.98438, 3.96876, 1.98438, 11.9063, 1.98438, 7.93752, 1.98438, 15.875, 1.98438;-inkscape-stroke:none;paint-order:markers fill stroke;fill-opacity:1"
       d="M 14.805814 2.6458333 C 11.837371 2.6458333 9.4625693 3.2636228 7.6801513 4.4979166 L 13.671 4.4979166 C 14.309652 4.3403436 15.01576 4.2612386 15.79025 4.2612386 C 15.818727 4.2612386 15.846634 4.2625565 15.875 4.2627888 L 15.875 2.6696045 C 15.516797 2.6544922 15.160183 2.6458333 14.805814 2.6458333 z M 17.859375 2.8282511 L 17.859375 4.4886149 C 17.87249 4.4916445 17.885563 4.4948262 17.898649 4.4979166 L 22.251355 4.4979166 L 22.235852 3.6762613 C 20.747611 3.2774131 19.288869 2.9955742 17.859375 2.8282511 z M 6.9949218 5.0276 C 6.8563045 5.1471334 6.7212982 5.2706204 6.5913289 5.3991536 C 6.3644124 5.623549 6.1521469 5.8611345 5.9531249 6.1112548 L 5.9531249 7.011975 L 10.23245 7.011975 C 10.340353 6.8286551 10.454267 6.6548576 10.575582 6.4915933 C 11.029681 5.8762236 11.593833 5.3883091 12.267468 5.0276 L 6.9949218 5.0276 z M 19.84375 5.0276 L 19.84375 5.2384399 C 20.072227 5.3627379 20.295828 5.4976057 20.51296 5.6456502 L 20.709847 7.011975 L 22.297863 7.011975 L 22.261173 5.0276 L 19.84375 5.0276 z M 5.0374186 7.5411417 C 4.728317 8.148163 4.4781402 8.8096379 4.2870768 9.5255166 L 9.294523 9.5255166 C 9.4584586 8.7812567 9.6779096 8.1201402 9.952364 7.5411417 L 5.0374186 7.5411417 z M 20.786328 7.5411417 L 20.943424 8.6299641 L 21.828125 8.6299641 L 21.828125 7.5411417 L 20.786328 7.5411417 z M 4.1584025 10.054683 C 4.0819605 10.403836 4.0190712 10.765096 3.9687499 11.138338 L 3.9687499 12.039058 L 7.9374999 12.039058 L 7.9374999 10.054683 L 4.1584025 10.054683 z M 3.8421427 12.568225 C 3.8294121 12.849451 3.8225056 13.136188 3.8225056 13.429154 C 3.8225056 13.813644 3.8367342 14.187906 3.8638468 14.5526 L 8.9648274 14.5526 C 8.9422749 14.175783 8.9296874 13.786961 8.9296874 13.383162 C 8.9296874 13.104215 8.9353718 12.834036 8.9441568 12.568225 L 3.8421427 12.568225 z M 3.9139729 15.082283 C 3.9302697 15.225406 3.9480457 15.367159 3.9687499 15.507064 L 3.9687499 15.082283 L 3.9139729 15.082283 z M 5.9531249 15.082283 L 5.9531249 17.066658 L 9.329663 17.066658 C 9.1779009 16.457335 9.0698633 15.795118 9.0046182 15.082283 L 5.9531249 15.082283 z M 4.483964 17.595825 C 4.7407811 18.311809 5.0722056 18.97353 5.4787353 19.5802 L 10.380762 19.5802 C 10.006769 19.005136 9.7047709 18.343907 9.4753905 17.595825 L 4.483964 17.595825 z M 21.191471 17.595825 L 20.9026 19.5802 L 22.59552 19.5802 L 22.63066 17.595825 L 21.191471 17.595825 z M 5.8616576 20.1073 C 5.8916829 20.145512 5.9224365 20.18326 5.9531249 20.220988 L 5.9531249 20.1073 L 5.8616576 20.1073 z M 7.9374999 20.1073 L 7.9374999 22.018811 C 7.9744904 22.04337 8.0117133 22.06762 8.049121 22.091675 L 14.147457 22.091675 C 12.745934 21.824351 11.617686 21.162953 10.763167 20.1073 L 7.9374999 20.1073 z M 21.828125 20.1073 L 21.828125 22.091675 L 22.551078 22.091675 L 22.586218 20.1073 L 21.828125 20.1073 z M 19.84375 21.272603 C 19.507257 21.450832 19.125513 21.61559 18.697566 21.76663 C 18.303633 21.90732 17.878319 22.015322 17.422192 22.091675 L 19.84375 22.091675 L 19.84375 21.272603 z M 8.9865315 22.620841 C 10.603147 23.415145 12.547959 23.8125 14.821317 23.8125 C 15.776114 23.8125 16.788949 23.742998 17.859375 23.604244 L 17.859375 22.620841 L 8.9865315 22.620841 z M 19.84375 22.620841 L 19.84375 23.272481 C 20.785176 23.079831 21.594197 22.862689 22.269958 22.620841 L 19.84375 22.620841 z " />
  </g>
</svg>
