<?xml version="1.0" encoding="UTF-8" standalone="no"?>
<!-- Created with Inkscape (http://www.inkscape.org/) -->

<svg
   version="1.0"
   width="128"
   height="128"
   id="svg14662"
   sodipodi:version="0.32"
   inkscape:version="1.2.2 (b0a8486541, 2022-12-01)"
   sodipodi:docname="logo.svg"
   inkscape:export-filename="../projects/censordle/assets/128.png"
   inkscape:export-xdpi="96"
   inkscape:export-ydpi="96"
   xmlns:inkscape="http://www.inkscape.org/namespaces/inkscape"
   xmlns:sodipodi="http://sodipodi.sourceforge.net/DTD/sodipodi-0.dtd"
   xmlns:xlink="http://www.w3.org/1999/xlink"
   xmlns="http://www.w3.org/2000/svg"
   xmlns:svg="http://www.w3.org/2000/svg"
   xmlns:rdf="http://www.w3.org/1999/02/22-rdf-syntax-ns#"
   xmlns:cc="http://creativecommons.org/ns#"
   xmlns:dc="http://purl.org/dc/elements/1.1/">
  <metadata
     id="metadata87">
    <rdf:RDF>
      <cc:Work
         rdf:about="">
        <dc:format>image/svg+xml</dc:format>
        <dc:type
           rdf:resource="http://purl.org/dc/dcmitype/StillImage" />
        <cc:license
           rdf:resource="http://creativecommons.org/licenses/GPL/2.0/" />
        <dc:creator>
          <cc:Agent>
            <dc:title>STyx</dc:title>
          </cc:Agent>
        </dc:creator>
        <dc:source>none</dc:source>
        <dc:subject>
          <rdf:Bag>
            <rdf:li>Wikipedia</rdf:li>
            <rdf:li>favicon</rdf:li>
          </rdf:Bag>
        </dc:subject>
        <dc:date>2007-06-26</dc:date>
        <dc:rights>
          <cc:Agent>
            <dc:title>GFDL</dc:title>
          </cc:Agent>
        </dc:rights>
        <dc:description>W de Wikipédia</dc:description>
        <dc:publisher>
          <cc:Agent>
            <dc:title>Inkscape</dc:title>
          </cc:Agent>
        </dc:publisher>
      </cc:Work>
      <cc:License
         rdf:about="http://creativecommons.org/licenses/GPL/2.0/">
        <cc:permits
           rdf:resource="http://web.resource.org/cc/Reproduction" />
        <cc:permits
           rdf:resource="http://web.resource.org/cc/Distribution" />
        <cc:requires
           rdf:resource="http://web.resource.org/cc/Notice" />
        <cc:permits
           rdf:resource="http://web.resource.org/cc/DerivativeWorks" />
        <cc:requires
           rdf:resource="http://web.resource.org/cc/ShareAlike" />
        <cc:requires
           rdf:resource="http://web.resource.org/cc/SourceCode" />
      </cc:License>
    </rdf:RDF>
  </metadata>
  <sodipodi:namedview
     inkscape:window-height="1032"
     inkscape:window-width="1912"
     inkscape:pageshadow="2"
     inkscape:pageopacity="0.0"
     borderopacity="1.0"
     bordercolor="#666666"
     pagecolor="#ffffff"
     id="base"
     inkscape:zoom="5.2701552"
     inkscape:cx="17.456791"
     inkscape:cy="79.978669"
     inkscape:window-x="4"
     inkscape:window-y="44"
     inkscape:current-layer="svg14662"
     inkscape:showpageshadow="2"
     inkscape:pagecheckerboard="0"
     inkscape:deskcolor="#d1d1d1"
     showgrid="false"
     inkscape:window-maximized="1" />
  <g
     id="g2036"
     transform="matrix(0.76854851,0,0,0.76854851,15.698618,14.812895)">
    <path
       sodipodi:nodetypes="ccccccccsccccsscccsscccc"
       id="V1"
       d="m 95.868706,23.909104 v 2.138952 c -2.821345,0.501091 -4.95688,1.387503 -6.406609,2.659237 -2.076846,1.888515 -4.525558,4.778988 -6.132035,8.671426 L 50.644589,104.09089 H 48.469874 L 15.65694,36.511576 C 14.128742,33.043075 12.051176,30.923395 11.424244,30.152531 10.44463,28.957874 9.2397119,28.023288 7.8095029,27.34877 6.3792686,26.674401 4.449448,26.24083 2.0200347,26.048056 V 23.909104 H 33.947916 v 2.138952 c -3.683354,0.346933 -5.439393,0.963567 -6.536517,1.849904 -1.097187,0.886486 -1.645765,2.023405 -1.645739,3.410761 -2.6e-5,1.927052 0.901208,4.933144 2.703708,9.018283 l 24.232394,45.958555 23.692691,-45.38046 c 1.841592,-4.470537 3.369486,-7.572977 3.369549,-9.307331 -6.3e-5,-1.117578 -0.568238,-2.187053 -1.704504,-3.208427 -1.136418,-1.021227 -2.422247,-1.743845 -5.125892,-2.167857 -0.195985,-0.03846 -0.529038,-0.09627 -0.999198,-0.173428 v -2.138952 z"
       style="font-style:normal;font-weight:normal;font-size:178.225px;font-family:'Times New Roman';fill:#000000;fill-opacity:1;stroke:none;stroke-width:1px;stroke-linecap:butt;stroke-linejoin:miter;stroke-opacity:1" />
    <path
       sodipodi:nodetypes="ccccccccsccccsscccsscccc"
       id="V2"
       d="m 123.97997,23.909104 v 2.138952 c -2.82134,0.501091 -4.95687,1.387503 -6.4066,2.659237 -2.07685,1.888515 -4.52556,4.778988 -6.13204,8.671426 L 82.755857,104.09089 H 80.581143 L 50.268209,36.511576 C 48.74001,33.043075 46.662445,30.923395 46.035513,30.152531 45.055898,28.957874 43.850981,28.023288 42.420772,27.34877 40.990537,26.674401 39.694911,26.24083 37.265497,26.048056 v -2.138952 h 31.293688 v 2.138952 c -3.683354,0.346933 -5.439393,0.963567 -6.536517,1.849904 -1.097187,0.886486 -1.645765,2.023405 -1.64574,3.410761 -2.5e-5,1.927052 0.901209,4.933144 2.703709,9.018283 l 21.732394,45.958555 19.692689,-45.38046 c 1.84159,-4.470537 3.36949,-7.572977 3.36955,-9.307331 -6e-5,-1.117578 -0.56824,-2.187053 -1.7045,-3.208427 -1.13642,-1.021227 -3.05644,-1.743845 -5.76009,-2.167857 -0.19598,-0.03846 -0.52904,-0.09627 -0.9992,-0.173428 v -2.138952 z"
       style="font-style:normal;font-weight:normal;font-size:178.225px;font-family:'Times New Roman';fill:#000000;fill-opacity:1;stroke:none;stroke-width:1px;stroke-linecap:butt;stroke-linejoin:miter;stroke-opacity:1" />
  </g>
  <rect
     style="fill:#333333;stroke-width:5.8095;stroke-linecap:round;stroke-linejoin:round"
     id="rect1415"
     width="93.623077"
     height="45.644897"
     x="18.138338"
     y="40.479034" />
</svg>
